<?xml version="1.0" standalone="no"?>
<!DOCTYPE svg PUBLIC "-//W3C//DTD SVG 20010904//EN"
 "http://www.w3.org/TR/2001/REC-SVG-20010904/DTD/svg10.dtd">
<svg version="1.0" xmlns="http://www.w3.org/2000/svg"
 width="300.000000pt" height="300.000000pt" viewBox="0 0 300.000000 300.000000"
 preserveAspectRatio="xMidYMid meet">
<metadata>
Created by potrace 1.11, written by Peter Selinger 2001-2013
</metadata>
<g transform="translate(0.000000,300.000000) scale(0.100000,-0.100000)"
fill="#000000" stroke="none">
<path d="M661 2571 c-17 -17 -18 -62 -23 -1097 -4 -794 -3 -1082 6 -1090 32
-32 80 -34 919 -34 l840 0 -6 1098 c-3 603 -8 1107 -12 1120 l-7 22 -849 0
c-815 0 -850 -1 -868 -19z m859 -47 l805 -1 0 -1054 0 -1054 -810 -3 -810 -2
-1 1027 c0 566 -4 1045 -8 1066 -6 31 -5 37 6 31 7 -5 375 -9 818 -10z"/>
<path d="M993 2393 c-15 -5 -17 -30 -4 -35 5 -1 11 -57 15 -123 l6 -120 -37
91 c-21 50 -47 104 -58 120 -11 16 -20 33 -20 39 0 13 -35 19 -35 6 0 -6 5
-11 10 -11 6 0 8 -10 4 -24 -3 -13 -1 -124 5 -247 9 -168 8 -224 0 -230 -22
-13 -1 -41 28 -37 l28 3 0 157 c0 86 3 151 8 145 17 -27 77 -236 71 -250 -6
-18 39 -53 56 -42 13 8 13 83 0 277 -12 173 -27 270 -43 280 -13 9 -17 9 -34
1z"/>
<path d="M1525 2306 c-19 -13 -19 -15 -2 -21 14 -6 17 -21 17 -96 0 -79 -2
-89 -18 -89 -10 0 -26 -6 -36 -13 -15 -11 -14 -14 18 -25 l35 -13 7 -89 c4
-53 12 -94 19 -100 20 -17 130 1 130 20 0 11 -13 16 -47 18 l-48 3 0 74 0 74
36 7 c46 8 44 38 -4 42 l-32 3 -1 82 c-3 138 -1 132 -29 135 -14 2 -34 -4 -45
-12z"/>
<path d="M1214 2196 c-10 -26 1 -61 20 -64 10 -2 22 1 26 8 11 18 67 3 85 -23
8 -12 15 -32 15 -45 0 -19 -4 -23 -17 -17 -38 17 -86 17 -128 1 -78 -30 -96
-91 -44 -151 29 -33 35 -35 89 -35 32 0 70 4 83 9 19 8 27 6 31 -5 8 -20 60
-17 80 5 19 21 14 41 -9 41 -9 0 -15 22 -20 78 -9 108 -12 121 -45 153 -24 24
-37 29 -79 29 -28 0 -51 4 -51 9 0 16 -31 21 -36 7z m142 -179 c1 -1 4 -18 7
-38 5 -33 3 -36 -27 -47 -18 -7 -50 -12 -73 -12 -32 0 -42 5 -53 25 -16 29 -3
50 45 71 23 11 94 11 101 1z"/>
<path d="M1804 2196 c-10 -26 1 -61 20 -64 10 -2 22 1 26 8 11 18 67 3 85 -23
8 -12 15 -32 15 -45 0 -19 -4 -23 -17 -17 -38 17 -86 17 -128 1 -78 -30 -96
-91 -44 -151 29 -33 35 -35 89 -35 32 0 70 4 83 9 19 8 27 6 31 -5 8 -20 60
-17 80 5 19 21 14 41 -9 41 -9 0 -15 22 -20 78 -9 108 -12 121 -45 153 -24 24
-37 29 -79 29 -28 0 -51 4 -51 9 0 16 -31 21 -36 7z m142 -179 c1 -1 4 -18 7
-38 5 -33 3 -36 -27 -47 -18 -7 -50 -12 -73 -12 -32 0 -42 5 -53 25 -16 29 -3
50 45 71 23 11 94 11 101 1z"/>
<path d="M1078 1753 c-21 -5 -23 -14 -7 -30 8 -8 1 -39 -29 -115 -22 -56 -44
-116 -49 -133 -9 -28 -11 -25 -27 50 -10 44 -26 99 -36 122 -11 25 -15 45 -9
48 5 4 9 13 9 21 0 12 -10 14 -42 12 -44 -3 -62 -23 -31 -36 11 -4 18 -18 19
-37 0 -16 13 -81 28 -144 15 -63 30 -143 33 -178 12 -129 49 -123 82 15 13 53
46 155 73 226 59 155 63 180 28 183 -14 0 -33 -1 -42 -4z"/>
<path d="M1909 1694 c-11 -13 -11 -20 2 -42 20 -36 62 -41 83 -10 20 28 20 33
0 52 -20 21 -68 20 -85 0z"/>
<path d="M1185 1664 c-21 -22 -3 -44 37 -44 32 0 47 23 28 45 -16 20 -45 19
-65 -1z"/>
<path d="M1356 1575 c-3 -9 -6 -79 -6 -156 0 -86 -4 -139 -10 -139 -5 0 -10
-7 -10 -15 0 -19 43 -30 66 -17 15 9 17 23 15 114 l-2 104 36 17 c20 10 41 15
46 12 14 -10 12 -202 -3 -208 -10 -3 -9 -9 3 -22 12 -12 25 -15 47 -10 l30 6
-5 102 c-5 123 -8 141 -29 161 -17 18 -80 21 -104 6 -12 -7 -17 -2 -26 23 -12
35 -38 47 -48 22z"/>
<path d="M1625 1558 c-3 -18 -5 -94 -3 -168 3 -133 3 -135 27 -138 27 -4 50
13 36 27 -6 6 -9 59 -7 119 l3 110 41 6 c28 5 45 3 54 -6 6 -7 14 -57 17 -110
6 -83 4 -99 -10 -106 -9 -5 -13 -14 -9 -21 8 -13 82 -15 90 -2 3 5 1 60 -5
122 -13 143 -24 163 -97 167 -28 2 -61 -2 -72 -8 -17 -9 -22 -7 -30 15 -13 34
-28 31 -35 -7z"/>
<path d="M1928 1583 c-3 -4 -2 -75 1 -158 l6 -150 26 -3 c19 -2 31 4 42 22 10
15 13 27 7 31 -6 3 -10 36 -10 73 -1 37 -6 94 -13 127 -10 49 -17 61 -34 63
-12 2 -23 0 -25 -5z"/>
<path d="M1163 1554 c-3 -9 -3 -68 1 -131 4 -80 3 -120 -5 -129 -20 -24 -2
-46 33 -42 l33 3 8 120 c6 100 5 127 -8 158 -16 40 -50 51 -62 21z"/>
<path d="M2084 1365 c-30 -45 4 -82 67 -73 19 2 25 10 27 36 4 42 -12 62 -49
62 -19 0 -34 -8 -45 -25z"/>
<path d="M1109 1013 c-9 -27 -12 -96 -10 -231 2 -188 1 -194 -19 -199 -38 -10
-12 -43 37 -46 27 -2 28 0 35 53 3 30 6 80 7 110 l1 56 40 -4 c37 -4 40 -6 40
-36 0 -17 3 -55 6 -83 6 -45 4 -53 -10 -53 -31 0 -17 -35 19 -46 48 -15 59 -5
56 58 -3 110 -31 328 -45 363 -8 19 -13 42 -10 49 9 22 -36 46 -87 46 -46 0
-48 -1 -60 -37z m98 -7 c5 -4 25 -197 22 -200 -2 -2 -19 -6 -36 -9 -33 -6 -33
-6 -33 32 0 21 -3 73 -7 116 l-6 78 29 -7 c16 -4 30 -9 31 -10z"/>
<path d="M1636 1005 c-11 -29 -6 -62 10 -76 14 -11 18 -11 29 4 7 9 25 17 42
17 l30 0 6 -97 c10 -151 8 -258 -5 -271 -8 -8 -8 -15 2 -27 14 -17 43 -19 71
-5 19 11 27 40 10 40 -5 0 -9 39 -8 88 1 48 -2 129 -6 180 l-9 92 66 0 c64 0
66 -1 66 -25 0 -18 5 -25 20 -25 12 0 20 7 20 17 0 9 8 25 17 35 15 17 15 20
1 35 -14 13 -44 16 -170 17 -84 0 -160 5 -169 9 -11 6 -18 3 -23 -8z"/>
<path d="M1408 983 c-1 -16 -2 -108 -3 -205 0 -169 -1 -178 -22 -197 -28 -26
-20 -51 17 -51 41 0 75 31 63 56 -6 11 -7 28 -2 39 4 11 8 37 8 58 1 34 3 37
21 27 11 -6 41 -31 66 -55 39 -38 45 -49 39 -72 -10 -40 39 -59 79 -30 17 12
17 15 -3 53 -24 45 -71 99 -115 130 l-29 21 21 35 c31 50 38 108 17 152 -19
39 -45 51 -96 44 -20 -3 -33 0 -36 9 -9 22 -23 14 -25 -14z m102 -85 c0 -21
-8 -53 -17 -71 l-17 -32 -8 69 c-6 50 -5 72 3 77 24 14 39 -3 39 -43z"/>
</g>
</svg>
